<?xml version="1.0" encoding="iso-8859-1"?>
<svg fill="#000000" height="800px" width="800px" version="1.1" id="Layer_1" xmlns="http://www.w3.org/2000/svg" xmlns:xlink="http://www.w3.org/1999/xlink" 
	 viewBox="0 0 512 512" xml:space="preserve">
<g>
	<g>
		<path d="M508.43,385.715L366.156,243.441l88.053-88.053c21.388-21.388,21.388-56.191,0-77.58l-19.984-19.984
			c-21.391-21.388-56.191-21.388-77.581,0l-88.053,88.053L126.286,3.571c-4.762-4.76-12.478-4.76-17.241,0L3.57,109.046
			c-4.76,4.76-4.76,12.479,0,17.241l142.307,142.306l-72.591,72.591c-1.671,1.548-2.92,3.544-3.519,5.823L41.088,455.989
			c-1.103,4.192,0.104,8.656,3.169,11.722c2.316,2.316,5.428,3.571,8.621,3.571c1.034,0,2.075-0.132,3.101-0.401l108.032-28.429
			c2.449-0.432,4.727-1.593,6.511-3.376l72.92-72.92l142.273,142.274c2.381,2.381,5.5,3.571,8.62,3.571s6.239-1.19,8.62-3.571
			l105.474-105.474C513.191,398.195,513.191,390.476,508.43,385.715z M373.887,75.064c11.88-11.882,31.216-11.882,43.099,0.001
			l19.984,19.983c11.882,11.883,11.882,31.217,0,43.099l-13.002,13.002l-63.083-63.083L373.887,75.064z M343.643,105.308
			l63.083,63.083l-15.213,15.214l-63.083-63.083L343.643,105.308z M29.431,117.666l88.235-88.235l32.252,32.252l-18.154,18.154
			c-4.76,4.76-4.76,12.479,0,17.241c2.381,2.381,5.5,3.571,8.62,3.571c3.12,0,6.239-1.19,8.62-3.571l18.154-18.154l23.326,23.326
			l-36.005,36.005c-4.76,4.76-4.76,12.479,0,17.241c2.381,2.381,5.5,3.571,8.62,3.571s6.239-1.19,8.62-3.571l36.006-36.006
			l43.627,43.627l-88.235,88.235L29.431,117.666z M311.188,137.761l22.516,22.516l-212.37,212.37l-22.515-22.516L311.188,137.761z
			 M69.984,441.984l17.96-68.246l50.287,50.287L69.984,441.984z M161.901,413.216l-23.326-23.326l212.37-212.37l23.328,23.326
			L161.901,413.216z M394.335,482.57L260.681,348.917l88.235-88.235l44.405,44.405l-18.154,18.154c-4.76,4.76-4.76,12.479,0,17.241
			c2.381,2.381,5.5,3.571,8.62,3.571s6.239-1.19,8.62-3.571l18.154-18.154l23.326,23.327l-36.005,36.003
			c-4.76,4.76-4.76,12.479,0,17.24c2.381,2.381,5.5,3.571,8.62,3.571s6.239-1.191,8.62-3.571l36.005-36.003l31.44,31.44
			L394.335,482.57z"/>
	</g>
</g>
</svg>