<?xml version="1.0" encoding="iso-8859-1"?>
<!DOCTYPE svg PUBLIC "-//W3C//DTD SVG 1.1//EN" "http://www.w3.org/Graphics/SVG/1.1/DTD/svg11.dtd">
<svg fill="#000000" version="1.1" id="Capa_1" xmlns="http://www.w3.org/2000/svg" xmlns:xlink="http://www.w3.org/1999/xlink" 
	 width="800px" height="800px" viewBox="0 0 343.483 343.483"
	 xml:space="preserve">
<g>
	<g>
		<g>
			<path d="M174.147,116.339l52.271,52.29l0.072-0.063l-0.061,0.069h-0.012l0.265,0.468l8.604,8.614L339.063,73.942
				c4.941-4.945,4.941-13.006-0.013-17.952l-52.26-52.277c-4.966-4.954-13.024-4.948-17.954,0L165.065,107.482l8.947,8.971
				L174.147,116.339z M291.3,44.366c3.135-3.167,8.647-3.18,11.817-0.012l21.623,21.611l-11.793,11.821L291.3,56.177
				C288.058,52.911,288.07,47.617,291.3,44.366z M273.971,61.692c3.092-3.117,8.622-3.156,11.799,0.012l21.642,21.614
				l-11.836,11.829l-21.617-21.626c-1.579-1.579-2.444-3.69-2.444-5.921C271.514,65.371,272.391,63.266,273.971,61.692z
				 M254.875,80.779c3.152-3.18,8.743-3.174,11.877,0.024l21.588,21.584l-11.83,11.812L254.887,92.59
				C251.639,89.299,251.645,84.018,254.875,80.779z M221.237,84.271c3.176-3.167,8.694-3.167,11.848,0.033l36.677,36.66
				l-11.823,11.824l-36.695-36.695C217.994,92.836,217.994,87.537,221.237,84.271z M215.459,120.194
				c3.159-3.144,8.653-3.15,11.812,0.006l21.63,21.611l-11.836,11.838l-21.629-21.626c-1.579-1.58-2.45-3.685-2.438-5.915
				C212.998,123.863,213.88,121.768,215.459,120.194z"/>
		</g>
		<g>
			<path d="M307.135,261.82l-80.542-80.529l0.012-0.007L53.703,8.382c-5.659-5.657-14.877-5.657-20.533-0.006L4.959,36.598
				c-5.657,5.663-5.657,14.868,0,20.519l166.489,166.495l-0.006,0.012l86.946,86.956c1.171,1.152,3.897,3.867,74.237,32.365
				c2.756,1.129,5.921,0.444,7.969-1.699c2.065-2.168,2.594-5.35,1.362-8.053C310.9,265.58,308.168,262.835,307.135,261.82z
				 M46.915,78.545L15.215,46.867l28.21-28.217l31.682,31.679L46.915,78.545z M275.796,303.433l24.505-24.499
				c4.678,9.38,12.586,26.085,20.735,43.618C302.926,315.095,285.59,307.817,275.796,303.433z"/>
		</g>
		<g>
			<path d="M162.062,233.009l0.111-0.132l0.006,0.006l0.081-0.078l-52.29-52.302l-0.081,0.078l-8.959-8.965L10.228,262.3
				c-4.942,4.948-4.942,12.995,0.006,17.942l52.278,52.272c4.945,4.966,12.995,4.966,17.955,0l90.69-90.679l-8.978-8.959
				L162.062,233.009z M78.284,310.748L41.57,274.082c-3.209-3.302-3.203-8.574-0.03-11.793c3.204-3.219,8.755-3.207,11.896,0
				l36.668,36.665L78.284,310.748z M99.669,289.382l-20.125-20.11c-3.264-3.248-3.27-8.557-0.018-11.829
				c3.204-3.188,8.677-3.164,11.838,0l16.447,16.447l3.849,3.507L99.669,289.382z M118.72,270.323l-20.113-20.116
				c-1.567-1.561-2.453-3.662-2.453-5.908c0-2.234,0.874-4.348,2.459-5.921c3.161-3.171,8.659-3.158,11.817,0l20.113,20.122
				L118.72,270.323z M136.085,252.969l-20.125-20.116c-3.23-3.267-3.23-8.562-0.021-11.805c3.225-3.207,8.689-3.171,11.851-0.019
				l20.113,20.122L136.085,252.969z"/>
		</g>
	</g>
</g>
</svg>