<?xml version="1.0" encoding="utf-8"?>
<svg fill="#eeeeee" width="30px" height="30px" viewBox="0 -0.5 33 33" version="1.1" xmlns="http://www.w3.org/2000/svg">
<path d="M26.604 29.587l-2.624-0.72-0.006-7.258 2.51 0.706 3.619-13.509-18.332-4.912-1.208 4.506h-2.068l1.863-6.952 22.193 5.946-5.947 22.193zM23.039 32h-23.039v-22.977h23.039v22.977zM21.041 11.021h-19.043v13.985h19.043v-13.985zM7.849 20.993l2.283-3.692 2.283 2.301 3.139-4.727 3.283 8.134h-14.556l1.855-3.71 1.713 1.694zM6.484 17.086c-0.828 0-1.499-0.67-1.499-1.498s0.671-1.498 1.499-1.498 1.498 0.67 1.498 1.498-0.67 1.498-1.498 1.498z"></path>
</svg>