<svg xmlns="http://www.w3.org/2000/svg" xml:space="preserve" viewBox="0 100 800 260">
<defs><g id="final-blind"><rect width="800" height="200" y="100" x="-800" rx="20" ry="20"/><rect width="800" height="100" y="200" x="-800"/></g></defs>

<mask id="first-blind" fill="white"><use href="#final-blind"></use></mask>

<style>.st0,.st10,.st9{fill:#06283d}.st9{stroke-width:1.5}.st10,.st9{stroke:#06283d;stroke-miterlimit:10}:root{--tr-amount:10%;--tr-n-amount:calc(0% - var(--tr-amount));--tr-blinds-delay:1.8s;--tr-blinds-duration:2s;--tr-sq-delay:0.8s;--tr-sq-duration:0.8s;--tr-wave-appear-duration:1s;--tr-wave-start-delay:calc(var(--tr-blinds-delay) + var(--tr-blinds-duration));--tr-wave-duration:3s;--tr-wave-delay:calc(var(--tr-wave-start-delay) + var(--tr-wave-appear-duration));--tr-wave-delta:3px;--tr-n-wave-delta:calc(0% - var(--tr-wave-delta))}#final-blind,#first-blind{animation:var(--tr-blinds-duration) ease var(--tr-blinds-delay) alternate 1 forwards move-blinds}#main-p>path,#squred-otioner>path:nth-child(8n){animation:var(--tr-sq-duration) ease-in-out var(--tr-sq-delay) alternate 1 both tr-left-mid}#main-p>path:nth-child(4n){animation-name:tr-right-bot}#main-p>path:nth-child(4n+1){animation-name:tr-left-top}#main-p>path:nth-child(4n+2){animation-name:tr-right-top}#main-p>path:nth-child(4n+3){animation-name:tr-left-bot}#squred-otioner>path:nth-child(8n+1){animation:var(--tr-sq-duration) ease-in-out var(--tr-sq-delay) alternate 1 both tr-left-bot}#squred-otioner>path:nth-child(8n+2){animation:var(--tr-sq-duration) ease-in-out var(--tr-sq-delay) alternate 1 both tr-left-top}#squred-otioner>path:nth-child(8n+3){animation:var(--tr-sq-duration) ease-in-out var(--tr-sq-delay) alternate 1 both tr-right-mid}#squred-otioner>path:nth-child(8n+4){animation:var(--tr-sq-duration) ease-in-out var(--tr-sq-delay) alternate 1 both tr-right-top}#squred-otioner>path:nth-child(8n+5){animation:var(--tr-sq-duration) ease-in-out var(--tr-sq-delay) alternate 1 both tr-right-bot}#squred-otioner>path:nth-child(8n+6){animation:var(--tr-sq-duration) ease-in-out var(--tr-sq-delay) alternate 1 both tr-mid-top}#squred-otioner>path:nth-child(8n+7){animation:var(--tr-sq-duration) ease-in-out var(--tr-sq-delay) alternate 1 both tr-mid-bot}#add-figs>path{animation:var(--tr-wave-appear-duration) ease var(--tr-wave-start-delay) alternate 1 both tr-mid-bot,var(--tr-wave-duration) linear var(--tr-wave-delay) alternate infinite none under-wave}#add-figs>path:nth-child(4n+1){animation-name:tr-mid-bot,under-wave;animation-delay:var(--tr-wave-start-delay),calc(var(--tr-wave-delay) + var(--tr-wave-duration)/4)}#add-figs>path:nth-child(4n+2){animation-name:tr-mid-bot,under-wave;animation-delay:var(--tr-wave-start-delay),calc(var(--tr-wave-delay) + 2*var(--tr-wave-duration)/4)}#add-figs>path:nth-child(4n+3){animation-name:tr-mid-bot,under-wave;animation-delay:var(--tr-wave-start-delay),calc(var(--tr-wave-delay) + 3*var(--tr-wave-duration)/4)}@keyframes under-wave{0%,100%,50%{transform:translateY(0)}25%{transform:translateY(var(--tr-wave-delta))}75%{transform:translateY(var(--tr-n-wave-delta))}}@keyframes move-blinds{from{transform:translateX(0)}to{transform:translateX(100%)}}@keyframes sq-pulse{0%,100%{transform:scale(.8)}70%{transform:scale(1.1)}}@keyframes sq-pulse-1{0%{transform:scale(1)}70%{transform:scale(.5)}100%{transform:scale(.8)}}@keyframes tr-left-bot{0%{transform:translate(var(--tr-n-amount),var(--tr-amount))}100%{transform:translate(0,0)}}@keyframes tr-left-mid{0%{transform:translate(var(--tr-n-amount),0)}100%{transform:translate(0,0)}}@keyframes tr-left-top{0%{transform:translate(var(--tr-n-amount),var(--tr-n-amount))}100%{transform:translate(0,0)}}@keyframes tr-right-bot{0%{transform:translate(var(--tr-amount),var(--tr-amount))}100%{transform:translate(0,0)}}@keyframes tr-right-mid{0%{transform:translate(var(--tr-amount),0)}100%{transform:translate(0,0)}}@keyframes tr-right-top{0%{transform:translate(var(--tr-amount),var(--tr-n-amount))}100%{transform:translate(0,0)}}@keyframes tr-mid-bot{0%{transform:translate(0,var(--tr-amount))}100%{transform:translate(0,0)}}@keyframes tr-mid-top{0%{transform:translate(0,var(--tr-n-amount))}100%{transform:translate(0,0)}}
</style>
<g id="squred-otioner"><path d="M393.8,272.6l-6.4,0c-0.6,0-1-0.4-1-1l0-6.4c0-0.6,0.4-1,1-1l6.4,0c0.6,0,1,0.4,1,1l0,6.4 C394.8,272.1,394.4,272.6,393.8,272.6z" class="st0"/><path d="M393.8,260.7l-6.4,0c-0.6,0-1-0.4-1-1l0-6.4c0-0.6,0.4-1,1-1l6.4,0c0.6,0,1,0.4,1,1l0,6.4 C394.8,260.2,394.4,260.7,393.8,260.7z" class="st0"/><path d="M393.8,248.8l-6.4,0c-0.6,0-1-0.4-1-1l0-6.4c0-0.6,0.4-1,1-1l6.4,0c0.6,0,1,0.4,1,1l0,6.4 C394.8,248.3,394.4,248.8,393.8,248.8z" class="st0"/><path d="M393.8,236.9l-6.4,0c-0.6,0-1-0.4-1-1l0-6.4c0-0.6,0.4-1,1-1l6.4,0c0.6,0,1,0.4,1,1l0,6.4 C394.8,236.5,394.4,236.9,393.8,236.9z" class="st0"/><path d="M393.8,225.7l-6.4,0c-0.6,0-1-0.4-1-1l0-6.4c0-0.6,0.4-1,1-1l6.4,0c0.6,0,1,0.4,1,1l0,6.4 C394.8,225.3,394.4,225.7,393.8,225.7z" class="st0"/><path d="M393.8,213.8l-6.4,0c-0.6,0-1-0.4-1-1l0-6.4c0-0.6,0.4-1,1-1l6.4,0c0.6,0,1,0.4,1,1l0,6.4 C394.8,213.4,394.4,213.8,393.8,213.8z" class="st0"/><path d="M366.1,202l-6.4,0c-0.6,0-1-0.4-1-1l0-6.4c0-0.6,0.4-1,1-1l6.4,0c0.6,0,1,0.4,1,1l0,6.4 C367.1,201.5,366.7,201.9,366.1,202z" class="st0"/><path d="M421.5,202l-6.4,0c-0.6,0-1-0.4-1-1l0-6.4c0-0.6,0.4-1,1-1l6.4,0c0.6,0,1,0.4,1,1l0,6.4 C422.5,201.5,422.1,201.9,421.5,202z" class="st0"/><path d="M379.9,202l-6.4,0c-0.6,0-1-0.4-1-1l0-6.4c0-0.6,0.4-1,1-1l6.4,0c0.6,0,1,0.4,1,1l0,6.4 C380.9,201.5,380.5,201.9,379.9,202z" class="st0"/><path d="M393.8,202l-6.4,0c-0.6,0-1-0.4-1-1l0-6.4c0-0.6,0.4-1,1-1l6.4,0c0.6,0,1,0.4,1,1l0,6.4 C394.8,201.5,394.4,201.9,393.8,202z" class="st0"/><path d="M407.6,202l-6.4,0c-0.6,0-1-0.4-1-1l0-6.4c0-0.6,0.4-1,1-1l6.4,0c0.6,0,1,0.4,1,1l0,6.4 C408.6,201.5,408.2,201.9,407.6,202z" class="st0"/><path d="M625.8,272.6l-6.4,0c-0.6,0-1-0.4-1-1l0-6.4c0-0.6,0.4-1,1-1l6.4,0c0.6,0,1,0.4,1,1l0,6.4 C626.8,272.1,626.4,272.6,625.8,272.6z" class="st0"/><path d="M625.7,260.7l-6.4,0c-0.6,0-1-0.4-1-1l0-6.4c0-0.6,0.4-1,1-1l6.4,0c0.6,0,1,0.4,1,1l0,6.4 C626.7,260.2,626.3,260.7,625.7,260.7z" class="st0"/><path d="M625.6,248.8l-6.4,0c-0.6,0-1-0.4-1-1l0-6.4c0-0.6,0.4-1,1-1l6.4,0c0.6,0,1,0.4,1,1l0,6.4 C626.6,248.3,626.2,248.8,625.6,248.8z" class="st0"/><path d="M625.5,236.9l-6.4,0c-0.6,0-1-0.4-1-1l0-6.4c0-0.6,0.4-1,1-1l6.4,0c0.6,0,1,0.4,1,1l0,6.4 C626.5,236.5,626.1,236.9,625.5,236.9z" class="st0"/><path d="M625.4,225.7l-6.4,0c-0.6,0-1-0.4-1-1l0-6.4c0-0.6,0.4-1,1-1l6.4,0c0.6,0,1,0.4,1,1l0,6.4 C626.4,225.3,626,225.7,625.4,225.7z" class="st0"/><path d="M639.4,236.7l-6.4,0c-0.6,0-1-0.4-1-1l0-6.4c0-0.6,0.4-1,1-1l6.4,0c0.6,0,1,0.4,1,1l0,6.4 C640.4,236.2,640,236.7,639.4,236.7z" class="st0"/><path d="M639.6,272.6l-6.4,0c-0.6,0-1-0.4-1-1l0-6.4c0-0.6,0.4-1,1-1l6.4,0c0.6,0,1,0.4,1,1l0,6.4 C640.6,272.1,640.2,272.6,639.6,272.6z" class="st0"/><path d="M653.5,272.6l-6.4,0c-0.6,0-1-0.4-1-1l0-6.4c0-0.6,0.4-1,1-1l6.4,0c0.6,0,1,0.4,1,1l0,6.4 C654.5,272.1,654.1,272.6,653.5,272.6z" class="st0"/><path d="M625.5,213.8l-6.4,0c-0.6,0-1-0.4-1-1l0-6.4c0-0.6,0.4-1,1-1l6.4,0c0.6,0,1,0.4,1,1l0,6.4 C626.5,213.4,626,213.8,625.5,213.8z" class="st0"/><path d="M625.4,202l-6.4,0c-0.6,0-1-0.4-1-1l0-6.4c0-0.6,0.4-1,1-1l6.4,0c0.6,0,1,0.4,1,1l0,6.4 C626.4,201.5,625.9,201.9,625.4,202z" class="st0"/><path d="M667.3,272.6l-6.4,0c-0.6,0-1-0.4-1-1l0-6.4c0-0.6,0.4-1,1-1l6.4,0c0.6,0,1,0.4,1,1l0,6.4 C668.3,272.1,667.9,272.6,667.3,272.6z" class="st0"/><path d="M681.2,272.6l-6.4,0c-0.6,0-1-0.4-1-1l0-6.4c0-0.6,0.4-1,1-1l6.4,0c0.6,0,1,0.4,1,1l0,6.4 C682.2,272.1,681.8,272.6,681.2,272.6z" class="st0"/><path d="M653.1,236.9l-6.4,0c-0.6,0-1-0.4-1-1l0-6.4c0-0.6,0.4-1,1-1l6.4,0c0.6,0,1,0.4,1,1l0,6.4 C654.1,236.5,653.6,236.9,653.1,236.9z" class="st0"/><path d="M666.9,236.9l-6.4,0c-0.6,0-1-0.4-1-1l0-6.4c0-0.6,0.4-1,1-1l6.4,0c0.6,0,1,0.4,1,1l0,6.4 C667.9,236.5,667.4,236.9,666.9,236.9z" class="st0"/><path d="M680.8,202l-6.4,0c-0.6,0-1-0.4-1-1l0-6.4c0-0.6,0.4-1,1-1l6.4,0c0.6,0,1,0.4,1,1l0,6.4 C681.8,201.5,681.3,201.9,680.8,202z" class="st0"/><path d="M639.2,202l-6.4,0c-0.6,0-1-0.4-1-1l0-6.4c0-0.6,0.4-1,1-1l6.4,0c0.6,0,1,0.4,1,1l0,6.4 C640.2,201.5,639.7,201.9,639.2,202z" class="st0"/><path d="M653.1,202l-6.4,0c-0.6,0-1-0.4-1-1l0-6.4c0-0.6,0.4-1,1-1l6.4,0c0.6,0,1,0.4,1,1l0,6.4 C654.1,201.5,653.6,201.9,653.1,202z" class="st0"/><path d="M666.9,202l-6.4,0c-0.6,0-1-0.4-1-1l0-6.4c0-0.6,0.4-1,1-1l6.4,0c0.6,0,1,0.4,1,1l0,6.4 C667.9,201.5,667.4,201.9,666.9,202z" class="st0"/><path d="M704.7,272.6l-6.4,0c-0.6,0-1-0.4-1-1l0-6.4c0-0.6,0.4-1,1-1l6.4,0c0.6,0,1,0.4,1,1l0,6.4 C705.7,272.1,705.3,272.6,704.7,272.6z" class="st0"/><path d="M704.6,260.7l-6.4,0c-0.6,0-1-0.4-1-1l0-6.4c0-0.6,0.4-1,1-1l6.4,0c0.6,0,1,0.4,1,1l0,6.4 C705.6,260.2,705.2,260.7,704.6,260.7z" class="st0"/><path d="M704.5,248.8l-6.4,0c-0.6,0-1-0.4-1-1l0-6.4c0-0.6,0.4-1,1-1l6.4,0c0.6,0,1,0.4,1,1l0,6.4 C705.5,248.3,705.1,248.8,704.5,248.8z" class="st0"/><path d="M704.4,236.9l-6.4,0c-0.6,0-1-0.4-1-1l0-6.4c0-0.6,0.4-1,1-1l6.4,0c0.6,0,1,0.4,1,1l0,6.4 C705.4,236.5,705,236.9,704.4,236.9z" class="st0"/><path d="M704.4,225.7l-6.4,0c-0.6,0-1-0.4-1-1l0-6.4c0-0.6,0.4-1,1-1l6.4,0c0.6,0,1,0.4,1,1l0,6.4 C705.4,225.3,704.9,225.7,704.4,225.7z" class="st0"/><path d="M718.3,236.7l-6.4,0c-0.6,0-1-0.4-1-1l0-6.4c0-0.6,0.4-1,1-1l6.4,0c0.6,0,1,0.4,1,1l0,6.4 C719.3,236.2,718.9,236.7,718.3,236.7z" class="st0"/><path d="M704.4,213.8l-6.4,0c-0.6,0-1-0.4-1-1l0-6.4c0-0.6,0.4-1,1-1l6.4,0c0.6,0,1,0.4,1,1l0,6.4 C705.4,213.4,704.9,213.8,704.4,213.8z" class="st0"/><path d="M704.3,202l-6.4,0c-0.6,0-1-0.4-1-1l0-6.4c0-0.6,0.4-1,1-1l6.4,0c0.6,0,1,0.4,1,1l0,6.4 C705.3,201.5,704.8,201.9,704.3,202z" class="st0"/><path d="M760.1,272.6l-6.4,0c-0.6,0-1-0.4-1-1l0-6.4c0-0.6,0.4-1,1-1l6.4,0c0.6,0,1,0.4,1,1l0,6.4 C761.1,272.1,760.7,272.6,760.1,272.6z" class="st0"/><path d="M745.8,260.7l-6.4,0c-0.6,0-1-0.4-1-1l0-6.4c0-0.6,0.4-1,1-1l6.4,0c0.6,0,1,0.4,1,1l0,6.4 C746.8,260.2,746.4,260.7,745.8,260.7z" class="st0"/><path d="M732,248.8l-6.4,0c-0.6,0-1-0.4-1-1l0-6.4c0-0.6,0.4-1,1-1l6.4,0c0.6,0,1,0.4,1,1l0,6.4 C733,248.3,732.5,248.8,732,248.8z" class="st0"/><path d="M745.8,236.9l-6.4,0c-0.6,0-1-0.4-1-1l0-6.4c0-0.6,0.4-1,1-1l6.4,0c0.6,0,1,0.4,1,1l0,6.4 C746.8,236.5,746.4,236.9,745.8,236.9z" class="st0"/><path d="M759.8,225.7l-6.4,0c-0.6,0-1-0.4-1-1l0-6.4c0-0.6,0.4-1,1-1l6.4,0c0.6,0,1,0.4,1,1l0,6.4 C760.8,225.3,760.3,225.7,759.8,225.7z" class="st0"/><path d="M759.8,213.8l-6.4,0c-0.6,0-1-0.4-1-1l0-6.4c0-0.6,0.4-1,1-1l6.4,0c0.6,0,1,0.4,1,1l0,6.4 C760.8,213.4,760.3,213.8,759.8,213.8z" class="st0"/><path d="M732,202l-6.4,0c-0.6,0-1-0.4-1-1l0-6.4c0-0.6,0.4-1,1-1l6.4,0c0.6,0,1,0.4,1,1l0,6.4 C733,201.5,732.5,201.9,732,202z" class="st0"/><path d="M718.1,202l-6.4,0c-0.6,0-1-0.4-1-1l0-6.4c0-0.6,0.4-1,1-1l6.4,0c0.6,0,1,0.4,1,1l0,6.4 C719.1,201.5,718.7,201.9,718.1,202z" class="st0"/><path d="M732,236.7l-6.4,0c-0.6,0-1-0.4-1-1l0-6.4c0-0.6,0.4-1,1-1l6.4,0c0.6,0,1,0.4,1,1l0,6.4 C733,236.2,732.5,236.7,732,236.7z" class="st0"/><path d="M745.8,202l-6.4,0c-0.6,0-1-0.4-1-1l0-6.4c0-0.6,0.4-1,1-1l6.4,0c0.6,0,1,0.4,1,1l0,6.4 C746.8,201.5,746.4,201.9,745.8,202z" class="st0"/><path d="M185.7,260.7l-6.4,0c-0.6,0-1-0.4-1-1l0-6.4c0-0.6,0.4-1,1-1l6.4,0c0.6,0,1,0.4,1,1l0,6.4 C186.7,260.2,186.3,260.7,185.7,260.7z" class="st0"/><path d="M185.6,248.8l-6.4,0c-0.6,0-1-0.4-1-1l0-6.4c0-0.6,0.4-1,1-1l6.4,0c0.6,0,1,0.4,1,1l0,6.4 C186.6,248.3,186.2,248.8,185.6,248.8z" class="st0"/><path d="M185.5,236.9l-6.4,0c-0.6,0-1-0.4-1-1l0-6.4c0-0.6,0.4-1,1-1l6.4,0c0.6,0,1,0.4,1,1l0,6.4 C186.5,236.5,186.1,236.9,185.5,236.9z" class="st0"/><path d="M185.4,225.7l-6.4,0c-0.6,0-1-0.4-1-1l0-6.4c0-0.6,0.4-1,1-1l6.4,0c0.6,0,1,0.4,1,1l0,6.4 C186.4,225.3,186,225.7,185.4,225.7z" class="st0"/><path d="M199.6,272.6l-6.4,0c-0.6,0-1-0.4-1-1l0-6.4c0-0.6,0.4-1,1-1l6.4,0c0.6,0,1,0.4,1,1l0,6.4 C200.6,272.1,200.2,272.6,199.6,272.6z" class="st0"/><path d="M184.7,272.6l-4.4,0c-0.8-0.8-1.2-1.2-2-2l0-4.4c0.8-0.8,1.2-1.2,2-2l4.4,0c0.8,0.8,1.2,1.2,2,2l0,4.4 C185.9,271.4,185.5,271.8,184.7,272.6z" class="st0"/><path d="M239.9,272.6l-4.4,0c-0.8-0.8-1.2-1.2-2-2l0-4.4c0.8-0.8,1.2-1.2,2-2l4.4,0c0.8,0.8,1.2,1.2,2,2l0,4.4 C241.1,271.4,240.6,271.8,239.9,272.6z" class="st0"/><path d="M213.5,272.6l-6.4,0c-0.6,0-1-0.4-1-1l0-6.4c0-0.6,0.4-1,1-1l6.4,0c0.6,0,1,0.4,1,1l0,6.4 C214.5,272.1,214,272.6,213.5,272.6z" class="st0"/><path d="M185.5,213.8l-6.4,0c-0.6,0-1-0.4-1-1l0-6.4c0-0.6,0.4-1,1-1l6.4,0c0.6,0,1,0.4,1,1l0,6.4 C186.5,213.4,186,213.8,185.5,213.8z" class="st0"/><path d="M227.3,272.6l-6.4,0c-0.6,0-1-0.4-1-1l0-6.4c0-0.6,0.4-1,1-1l6.4,0c0.6,0,1,0.4,1,1l0,6.4 C228.3,272.1,227.9,272.6,227.3,272.6z" class="st0"/><path d="M241.1,260.7l-6.4,0c-0.6,0-1-0.4-1-1l0-6.4c0-0.6,0.4-1,1-1l6.4,0c0.6,0,1,0.4,1,1l0,6.4 C242.1,260.2,241.7,260.7,241.1,260.7z" class="st0"/><path d="M241,248.8l-6.4,0c-0.6,0-1-0.4-1-1l0-6.4c0-0.6,0.4-1,1-1l6.4,0c0.6,0,1,0.4,1,1l0,6.4 C242,248.3,241.6,248.8,241,248.8z" class="st0"/><path d="M240.9,236.9l-6.4,0c-0.6,0-1-0.4-1-1l0-6.4c0-0.6,0.4-1,1-1l6.4,0c0.6,0,1,0.4,1,1l0,6.4 C241.9,236.5,241.5,236.9,240.9,236.9z" class="st0"/><path d="M240.8,225.7l-6.4,0c-0.6,0-1-0.4-1-1l0-6.4c0-0.6,0.4-1,1-1l6.4,0c0.6,0,1,0.4,1,1l0,6.4 C241.8,225.3,241.4,225.7,240.8,225.7z" class="st0"/><path d="M240.9,213.8l-6.4,0c-0.6,0-1-0.4-1-1l0-6.4c0-0.6,0.4-1,1-1l6.4,0c0.6,0,1,0.4,1,1l0,6.4 C241.9,213.4,241.4,213.8,240.9,213.8z" class="st0"/><path d="M199.2,202l-6.4,0c-0.6,0-1-0.4-1-1l0-6.4c0-0.6,0.4-1,1-1l6.4,0c0.6,0,1,0.4,1,1l0,6.4 C200.2,201.5,199.7,201.9,199.2,202z" class="st0"/><path d="M213.1,202l-6.4,0c-0.6,0-1-0.4-1-1l0-6.4c0-0.6,0.4-1,1-1l6.4,0c0.6,0,1,0.4,1,1l0,6.4 C214.1,201.5,213.6,201.9,213.1,202z" class="st0"/><path d="M226.9,202l-6.4,0c-0.6,0-1-0.4-1-1l0-6.4c0-0.6,0.4-1,1-1l6.4,0c0.6,0,1,0.4,1,1l0,6.4 C227.9,201.5,227.4,201.9,226.9,202z" class="st0"/><path d="M184.5,201.9l-4.4,0c-0.8-0.8-1.2-1.2-2-2l0-4.4c0.8-0.8,1.2-1.2,2-2l4.4,0c0.8,0.8,1.2,1.2,2,2l0,4.4 C185.7,200.7,185.2,201.2,184.5,201.9z" class="st0"/><path d="M239.9,201.9l-4.4,0c-0.8-0.8-1.2-1.2-2-2l0-4.4c0.8-0.8,1.2-1.2,2-2l4.4,0c0.8,0.8,1.2,1.2,2,2l0,4.4 C241.1,200.7,240.6,201.2,239.9,201.9z" class="st0"/><path d="M264.6,272.6l-6.4,0c-0.6,0-1-0.4-1-1l0-6.4c0-0.6,0.4-1,1-1l6.4,0c0.6,0,1,0.4,1,1l0,6.4 C265.6,272.1,265.1,272.6,264.6,272.6z" class="st0"/><path d="M305.6,236.9l-6.4,0c-0.6,0-1-0.4-1-1l0-6.4c0-0.6,0.4-1,1-1l6.4,0c0.6,0,1,0.4,1,1l0,6.4 C306.6,236.5,306.2,236.9,305.6,236.9z" class="st0"/><path d="M264.2,225.7l-6.4,0c-0.6,0-1-0.4-1-1l0-6.4c0-0.6,0.4-1,1-1l6.4,0c0.6,0,1,0.4,1,1l0,6.4 C265.2,225.3,264.8,225.7,264.2,225.7z" class="st0"/><path d="M278.2,236.7l-6.4,0c-0.6,0-1-0.4-1-1l0-6.4c0-0.6,0.4-1,1-1l6.4,0c0.6,0,1,0.4,1,1l0,6.4 C279.2,236.2,278.7,236.7,278.2,236.7z" class="st0"/><path d="M278.4,272.6l-6.4,0c-0.6,0-1-0.4-1-1l0-6.4c0-0.6,0.4-1,1-1l6.4,0c0.6,0,1,0.4,1,1l0,6.4 C279.4,272.1,278.9,272.6,278.4,272.6z" class="st0"/><path d="M292.3,272.6l-6.4,0c-0.6,0-1-0.4-1-1l0-6.4c0-0.6,0.4-1,1-1l6.4,0c0.6,0,1,0.4,1,1l0,6.4 C293.3,272.1,292.8,272.6,292.3,272.6z" class="st0"/><path d="M264.2,213.8l-6.4,0c-0.6,0-1-0.4-1-1l0-6.4c0-0.6,0.4-1,1-1l6.4,0c0.6,0,1,0.4,1,1l0,6.4 C265.2,213.4,264.8,213.8,264.2,213.8z" class="st0"/><path d="M306.1,272.6l-6.4,0c-0.6,0-1-0.4-1-1l0-6.4c0-0.6,0.4-1,1-1l6.4,0c0.6,0,1,0.4,1,1l0,6.4 C307.1,272.1,306.6,272.6,306.1,272.6z" class="st0"/><path d="M319.9,260.7l-6.4,0c-0.6,0-1-0.4-1-1l0-6.4c0-0.6,0.4-1,1-1l6.4,0c0.6,0,1,0.4,1,1l0,6.4 C320.9,260.2,320.4,260.7,319.9,260.7z" class="st0"/><path d="M319.8,248.8l-6.4,0c-0.6,0-1-0.4-1-1l0-6.4c0-0.6,0.4-1,1-1l6.4,0c0.6,0,1,0.4,1,1l0,6.4 C320.8,248.3,320.3,248.8,319.8,248.8z" class="st0"/><path d="M291.8,236.9l-6.4,0c-0.6,0-1-0.4-1-1l0-6.4c0-0.6,0.4-1,1-1l6.4,0c0.6,0,1,0.4,1,1l0,6.4 C292.8,236.5,292.4,236.9,291.8,236.9z" class="st0"/><path d="M319.5,202l-6.4,0c-0.6,0-1-0.4-1-1l0-6.4c0-0.6,0.4-1,1-1l6.4,0c0.6,0,1,0.4,1,1l0,6.4 C320.5,201.5,320.1,201.9,319.5,202z" class="st0"/><path d="M277.9,202l-6.4,0c-0.6,0-1-0.4-1-1l0-6.4c0-0.6,0.4-1,1-1l6.4,0c0.6,0,1,0.4,1,1l0,6.4 C278.9,201.5,278.5,201.9,277.9,202z" class="st0"/><path d="M291.8,202l-6.4,0c-0.6,0-1-0.4-1-1l0-6.4c0-0.6,0.4-1,1-1l6.4,0c0.6,0,1,0.4,1,1l0,6.4 C292.8,201.5,292.4,201.9,291.8,202z" class="st0"/><path d="M305.6,202l-6.4,0c-0.6,0-1-0.4-1-1l0-6.4c0-0.6,0.4-1,1-1l6.4,0c0.6,0,1,0.4,1,1l0,6.4 C306.6,201.5,306.2,201.9,305.6,202z" class="st0"/><path d="M263.2,202l-4.4,0c-0.8-0.8-1.2-1.2-2-2l0-4.4c0.8-0.8,1.2-1.2,2-2l4.4,0c0.8,0.8,1.2,1.2,2,2l0,4.4 C264.4,200.7,264,201.2,263.2,202z" class="st0"/><path d="M263.3,236.7l-4.4,0c-0.8-0.8-1.2-1.2-2-2l0-4.4c0.8-0.8,1.2-1.2,2-2l4.4,0c0.8,0.8,1.2,1.2,2,2l0,4.4 C264.5,235.5,264.1,235.9,263.3,236.7z" class="st0"/><path d="M318.5,213.9l-4.4,0c-0.8-0.8-1.2-1.2-2-2l0-4.4c0.8-0.8,1.2-1.2,2-2l4.4,0c0.8,0.8,1.2,1.2,2,2l0,4.4 C319.8,212.6,319.3,213.1,318.5,213.9z" class="st0"/><path d="M318.6,236.9l-4.4,0c-0.8-0.8-1.2-1.2-2-2l0-4.4c0.8-0.8,1.2-1.2,2-2l4.4,0c0.8,0.8,1.2,1.2,2,2l0,4.4 C319.8,235.7,319.4,236.1,318.6,236.9z" class="st0"/><path d="M319,272.6l-4.4,0c-0.8-0.8-1.2-1.2-2-2l0-4.4c0.8-0.8,1.2-1.2,2-2l4.4,0c0.8,0.8,1.2,1.2,2,2l0,4.4 C320.2,271.4,319.7,271.8,319,272.6z" class="st0"/><path d="M263.3,260.7l-4.4,0c-0.8-0.8-1.2-1.2-2-2l0-4.4c0.8-0.8,1.2-1.2,2-2l4.4,0c0.8,0.8,1.2,1.2,2,2l0,4.4 C264.5,259.5,264.1,259.9,263.3,260.7z" class="st0"/><path d="M343,272.6l-6.4,0c-0.6,0-1-0.4-1-1l0-6.4c0-0.6,0.4-1,1-1l6.4,0c0.6,0,1,0.4,1,1l0,6.4 C344,272.1,343.6,272.6,343,272.6z" class="st0"/><path d="M343,260.7l-6.4,0c-0.6,0-1-0.4-1-1l0-6.4c0-0.6,0.4-1,1-1l6.4,0c0.6,0,1,0.4,1,1l0,6.4 C344,260.2,343.6,260.7,343,260.7z" class="st0"/><path d="M343,248.8l-6.4,0c-0.6,0-1-0.4-1-1l0-6.4c0-0.6,0.4-1,1-1l6.4,0c0.6,0,1,0.4,1,1l0,6.4 C344,248.3,343.6,248.8,343,248.8z" class="st0"/><path d="M343,236.9l-6.4,0c-0.6,0-1-0.4-1-1l0-6.4c0-0.6,0.4-1,1-1l6.4,0c0.6,0,1,0.4,1,1l0,6.4 C344,236.5,343.6,236.9,343,236.9z" class="st0"/><path d="M343,225.7l-6.4,0c-0.6,0-1-0.4-1-1l0-6.4c0-0.6,0.4-1,1-1l6.4,0c0.6,0,1,0.4,1,1l0,6.4 C344,225.3,343.6,225.7,343,225.7z" class="st0"/><path d="M342.1,201.9l-4.4,0c-0.8-0.8-1.2-1.2-2-2l0-4.4c0.8-0.8,1.2-1.2,2-2l4.4,0c0.8,0.8,1.2,1.2,2,2l0,4.4 C343.3,200.7,342.8,201.2,342.1,201.9z" class="st0"/><path d="M444.6,272.6l-6.4,0c-0.6,0-1-0.4-1-1l0-6.4c0-0.6,0.4-1,1-1l6.4,0c0.6,0,1,0.4,1,1l0,6.4 C445.6,272.1,445.2,272.6,444.6,272.6z" class="st0"/><path d="M444.6,260.7l-6.4,0c-0.6,0-1-0.4-1-1l0-6.4c0-0.6,0.4-1,1-1l6.4,0c0.6,0,1,0.4,1,1l0,6.4 C445.6,260.2,445.2,260.7,444.6,260.7z" class="st0"/><path d="M444.6,248.8l-6.4,0c-0.6,0-1-0.4-1-1l0-6.4c0-0.6,0.4-1,1-1l6.4,0c0.6,0,1,0.4,1,1l0,6.4 C445.6,248.3,445.2,248.8,444.6,248.8z" class="st0"/><path d="M444.6,236.9l-6.4,0c-0.6,0-1-0.4-1-1l0-6.4c0-0.6,0.4-1,1-1l6.4,0c0.6,0,1,0.4,1,1l0,6.4 C445.6,236.5,445.2,236.9,444.6,236.9z" class="st0"/><path d="M444.6,225.7l-6.4,0c-0.6,0-1-0.4-1-1l0-6.4c0-0.6,0.4-1,1-1l6.4,0c0.6,0,1,0.4,1,1l0,6.4 C445.6,225.3,445.2,225.7,444.6,225.7z" class="st0"/><path d="M443.6,201.9l-4.4,0c-0.8-0.8-1.2-1.2-2-2l0-4.4c0.8-0.8,1.2-1.2,2-2l4.4,0c0.8,0.8,1.2,1.2,2,2l0,4.4 C444.9,200.7,444.4,201.2,443.6,201.9z" class="st0"/><path d="M468,260.7l-6.4,0c-0.6,0-1-0.4-1-1l0-6.4c0-0.6,0.4-1,1-1l6.4,0c0.6,0,1,0.4,1,1l0,6.4 C469,260.2,468.5,260.7,468,260.7z" class="st0"/><path d="M467.9,248.8l-6.4,0c-0.6,0-1-0.4-1-1l0-6.4c0-0.6,0.4-1,1-1l6.4,0c0.6,0,1,0.4,1,1l0,6.4 C468.9,248.3,468.5,248.8,467.9,248.8z" class="st0"/><path d="M467.8,236.9l-6.4,0c-0.6,0-1-0.4-1-1l0-6.4c0-0.6,0.4-1,1-1l6.4,0c0.6,0,1,0.4,1,1l0,6.4 C468.8,236.5,468.4,236.9,467.8,236.9z" class="st0"/><path d="M467.7,225.7l-6.4,0c-0.6,0-1-0.4-1-1l0-6.4c0-0.6,0.4-1,1-1l6.4,0c0.6,0,1,0.4,1,1l0,6.4 C468.7,225.3,468.3,225.7,467.7,225.7z" class="st0"/><path d="M481.9,272.6l-6.4,0c-0.6,0-1-0.4-1-1l0-6.4c0-0.6,0.4-1,1-1l6.4,0c0.6,0,1,0.4,1,1l0,6.4 C482.9,272.1,482.4,272.6,481.9,272.6z" class="st0"/><path d="M467,272.6l-4.4,0c-0.8-0.8-1.2-1.2-2-2l0-4.4c0.8-0.8,1.2-1.2,2-2l4.4,0c0.8,0.8,1.2,1.2,2,2l0,4.4 C468.2,271.4,467.8,271.8,467,272.6z" class="st0"/><path d="M522.1,272.6l-4.4,0c-0.8-0.8-1.2-1.2-2-2l0-4.4c0.8-0.8,1.2-1.2,2-2l4.4,0c0.8,0.8,1.2,1.2,2,2l0,4.4 C523.3,271.4,522.9,271.8,522.1,272.6z" class="st0"/><path d="M495.8,272.6l-6.4,0c-0.6,0-1-0.4-1-1l0-6.4c0-0.6,0.4-1,1-1l6.4,0c0.6,0,1,0.4,1,1l0,6.4 C496.8,272.1,496.3,272.6,495.8,272.6z" class="st0"/><path d="M467.7,213.8l-6.4,0c-0.6,0-1-0.4-1-1l0-6.4c0-0.6,0.4-1,1-1l6.4,0c0.6,0,1,0.4,1,1l0,6.4 C468.7,213.4,468.3,213.8,467.7,213.8z" class="st0"/><path d="M509.6,272.6l-6.4,0c-0.6,0-1-0.4-1-1l0-6.4c0-0.6,0.4-1,1-1l6.4,0c0.6,0,1,0.4,1,1l0,6.4 C510.6,272.1,510.1,272.6,509.6,272.6z" class="st0"/><path d="M523.4,260.7l-6.4,0c-0.6,0-1-0.4-1-1l0-6.4c0-0.6,0.4-1,1-1l6.4,0c0.6,0,1,0.4,1,1l0,6.4 C524.4,260.2,523.9,260.7,523.4,260.7z" class="st0"/><path d="M523.3,248.8l-6.4,0c-0.6,0-1-0.4-1-1l0-6.4c0-0.6,0.4-1,1-1l6.4,0c0.6,0,1,0.4,1,1l0,6.4 C524.3,248.3,523.9,248.8,523.3,248.8z" class="st0"/><path d="M523.2,236.9l-6.4,0c-0.6,0-1-0.4-1-1l0-6.4c0-0.6,0.4-1,1-1l6.4,0c0.6,0,1,0.4,1,1l0,6.4 C524.2,236.5,523.8,236.9,523.2,236.9z" class="st0"/><path d="M523.1,225.7l-6.4,0c-0.6,0-1-0.4-1-1l0-6.4c0-0.6,0.4-1,1-1l6.4,0c0.6,0,1,0.4,1,1l0,6.4 C524.1,225.3,523.7,225.7,523.1,225.7z" class="st0"/><path d="M523.1,213.8l-6.4,0c-0.6,0-1-0.4-1-1l0-6.4c0-0.6,0.4-1,1-1l6.4,0c0.6,0,1,0.4,1,1l0,6.4 C524.1,213.4,523.7,213.8,523.1,213.8z" class="st0"/><path d="M481.5,202l-6.4,0c-0.6,0-1-0.4-1-1l0-6.4c0-0.6,0.4-1,1-1l6.4,0c0.6,0,1,0.4,1,1l0,6.4 C482.5,201.5,482,201.9,481.5,202z" class="st0"/><path d="M495.4,202l-6.4,0c-0.6,0-1-0.4-1-1l0-6.4c0-0.6,0.4-1,1-1l6.4,0c0.6,0,1,0.4,1,1l0,6.4 C496.4,201.5,495.9,201.9,495.4,202z" class="st0"/><path d="M509.2,202l-6.4,0c-0.6,0-1-0.4-1-1l0-6.4c0-0.6,0.4-1,1-1l6.4,0c0.6,0,1,0.4,1,1l0,6.4 C510.2,201.5,509.7,201.9,509.2,202z" class="st0"/><path d="M466.8,201.9l-4.4,0c-0.8-0.8-1.2-1.2-2-2l0-4.4c0.8-0.8,1.2-1.2,2-2l4.4,0c0.8,0.8,1.2,1.2,2,2l0,4.4 C468,200.7,467.5,201.2,466.8,201.9z" class="st0"/><path d="M522.2,201.9l-4.4,0c-0.8-0.8-1.2-1.2-2-2l0-4.4c0.8-0.8,1.2-1.2,2-2l4.4,0c0.8,0.8,1.2,1.2,2,2l0,4.4 C523.4,200.7,522.9,201.2,522.2,201.9z" class="st0"/><path d="M546.9,272.6l-6.4,0c-0.6,0-1-0.4-1-1l0-6.4c0-0.6,0.4-1,1-1l6.4,0c0.6,0,1,0.4,1,1l0,6.4 C547.9,272.1,547.4,272.6,546.9,272.6z" class="st0"/><path d="M546.8,260.7l-6.4,0c-0.6,0-1-0.4-1-1l0-6.4c0-0.6,0.4-1,1-1l6.4,0c0.6,0,1,0.4,1,1l0,6.4 C547.8,260.2,547.3,260.7,546.8,260.7z" class="st0"/><path d="M546.7,248.8l-6.4,0c-0.6,0-1-0.4-1-1l0-6.4c0-0.6,0.4-1,1-1l6.4,0c0.6,0,1,0.4,1,1l0,6.4 C547.7,248.3,547.3,248.8,546.7,248.8z" class="st0"/><path d="M546.6,236.9l-6.4,0c-0.6,0-1-0.4-1-1l0-6.4c0-0.6,0.4-1,1-1l6.4,0c0.6,0,1,0.4,1,1l0,6.4 C547.6,236.5,547.2,236.9,546.6,236.9z" class="st0"/><path d="M546.5,225.7l-6.4,0c-0.6,0-1-0.4-1-1l0-6.4c0-0.6,0.4-1,1-1l6.4,0c0.6,0,1,0.4,1,1l0,6.4 C547.5,225.3,547.1,225.7,546.5,225.7z" class="st0"/><path d="M546.6,213.8l-6.4,0c-0.6,0-1-0.4-1-1l0-6.4c0-0.6,0.4-1,1-1l6.4,0c0.6,0,1,0.4,1,1l0,6.4 C547.6,213.4,547.1,213.8,546.6,213.8z" class="st0"/><path d="M602.2,260.7l-6.4,0c-0.6,0-1-0.4-1-1l0-6.4c0-0.6,0.4-1,1-1l6.4,0c0.6,0,1,0.4,1,1l0,6.4 C603.2,260.2,602.7,260.7,602.2,260.7z" class="st0"/><path d="M602.1,248.8l-6.4,0c-0.6,0-1-0.4-1-1l0-6.4c0-0.6,0.4-1,1-1l6.4,0c0.6,0,1,0.4,1,1l0,6.4 C603.1,248.3,602.7,248.8,602.1,248.8z" class="st0"/><path d="M602,236.9l-6.4,0c-0.6,0-1-0.4-1-1l0-6.4c0-0.6,0.4-1,1-1l6.4,0c0.6,0,1,0.4,1,1l0,6.4 C603,236.5,602.6,236.9,602,236.9z" class="st0"/><path d="M601.9,225.7l-6.4,0c-0.6,0-1-0.4-1-1l0-6.4c0-0.6,0.4-1,1-1l6.4,0c0.6,0,1,0.4,1,1l0,6.4 C602.9,225.3,602.5,225.7,601.9,225.7z" class="st0"/><path d="M602,213.8l-6.4,0c-0.6,0-1-0.4-1-1l0-6.4c0-0.6,0.4-1,1-1l6.4,0c0.6,0,1,0.4,1,1l0,6.4 C603,213.4,602.5,213.8,602,213.8z" class="st0"/><path d="M601.9,202l-6.4,0c-0.6,0-1-0.4-1-1l0-6.4c0-0.6,0.4-1,1-1l6.4,0c0.6,0,1,0.4,1,1l0,6.4 C602.9,201.5,602.4,201.9,601.9,202z" class="st0"/><path d="M560.3,225.7l-6.4,0c-0.6,0-1-0.4-1-1l0-6.4c0-0.6,0.4-1,1-1l6.4,0c0.6,0,1,0.4,1,1l0,6.4 C561.3,225.3,560.8,225.7,560.3,225.7z" class="st0"/><path d="M574.2,236.7l-6.4,0c-0.6,0-1-0.4-1-1l0-6.4c0-0.6,0.4-1,1-1l6.4,0c0.6,0,1,0.4,1,1l0,6.4 C575.2,236.2,574.7,236.7,574.2,236.7z" class="st0"/><path d="M588,248.8l-6.4,0c-0.6,0-1-0.4-1-1l0-6.4c0-0.6,0.4-1,1-1l6.4,0c0.6,0,1,0.4,1,1l0,6.4 C589,248.3,588.5,248.8,588,248.8z" class="st0"/><path d="M545.5,201.9l-4.4,0c-0.8-0.8-1.2-1.2-2-2l0-4.4c0.8-0.8,1.2-1.2,2-2l4.4,0c0.8,0.8,1.2,1.2,2,2l0,4.4 C546.7,200.7,546.2,201.2,545.5,201.9z" class="st0"/><path d="M601.3,272.6l-4.4,0c-0.8-0.8-1.2-1.2-2-2l0-4.4c0.8-0.8,1.2-1.2,2-2l4.4,0c0.8,0.8,1.2,1.2,2,2l0,4.4 C602.5,271.4,602.1,271.8,601.3,272.6z" class="st0"/></g>
<use href="#final-blind" fill="#dff6ff"></use>
<g id="font-otioner" mask="url(#first-blind)"><path d="M188.6,270.1c-2.2,0-4.2-0.6-6-1.9c-1.8-1.2-3.3-2.9-4.3-5c-1.1-2.1-1.6-4.4-1.6-7v-49.3c0-2.6,0.5-4.9,1.6-7 c1.1-2.1,2.5-3.8,4.3-5c1.8-1.2,3.8-1.9,6-1.9h42.3c2.2,0,4.2,0.6,6,1.9c1.8,1.3,3.3,2.9,4.3,5c1.1,2.1,1.6,4.4,1.6,7v49.3 c0,2.6-0.5,4.9-1.6,7c-1.1,2.1-2.5,3.8-4.3,5c-1.8,1.3-3.8,1.9-6,1.9H188.6z M188.9,258.6h41.8c0.6,0,1.1-0.3,1.6-0.8 c0.4-0.5,0.6-1.2,0.6-1.9v-48.6c0-0.7-0.2-1.3-0.6-1.9c-0.4-0.5-1-0.8-1.6-0.8h-41.8c-0.6,0-1.2,0.3-1.6,0.8 c-0.5,0.5-0.7,1.2-0.7,1.9v48.6c0,0.7,0.2,1.3,0.7,1.9C187.7,258.3,188.3,258.6,188.9,258.6z"/><path d="M268.6,270.1c-2.2,0-4.2-0.6-6-1.9c-1.8-1.2-3.3-2.9-4.3-5c-1.1-2.1-1.6-4.4-1.6-7v-4.5h9.9v4.2c0,0.7,0.2,1.3,0.7,1.9 c0.5,0.5,1,0.8,1.6,0.8h41.8c0.6,0,1.1-0.3,1.6-0.8c0.4-0.5,0.6-1.2,0.6-1.9V240c0-0.8-0.2-1.4-0.6-1.9c-0.4-0.5-1-0.8-1.6-0.8 h-42.1c-2.2,0-4.2-0.6-6-1.9c-1.8-1.2-3.3-2.9-4.3-5c-1.1-2.1-1.6-4.4-1.6-7v-16.5c0-2.6,0.5-4.9,1.6-7c1.1-2.1,2.5-3.8,4.3-5 c1.8-1.2,3.8-1.9,6-1.9h42.3c2.2,0,4.2,0.6,6,1.9c1.8,1.3,3.3,2.9,4.3,5c1.1,2.1,1.6,4.4,1.6,7v4.5h-10v-4.2 c0-0.7-0.2-1.3-0.6-1.9c-0.4-0.5-1-0.8-1.6-0.8h-41.8c-0.6,0-1.2,0.3-1.6,0.8c-0.5,0.5-0.7,1.2-0.7,1.9v15.9 c0,0.8,0.2,1.4,0.7,1.9c0.5,0.5,1,0.8,1.6,0.8h42.1c2.2,0,4.2,0.6,6,1.9c1.8,1.3,3.3,2.9,4.3,5c1.1,2.1,1.6,4.4,1.6,7v16.5 c0,2.6-0.5,4.9-1.6,7c-1.1,2.1-2.5,3.8-4.3,5c-1.8,1.3-3.8,1.9-6,1.9H268.6z"/><path d="M336.5,270.1V193h9.9v77.1H336.5z"/><path d="M385.3,270.1v-65.6h-28.2V193h66.3v11.6h-28.2v65.6H385.3z"/><path d="M434,270.1V193h9.9v77.1H434z"/><path d="M469.7,270.1c-2.2,0-4.2-0.6-6-1.9c-1.8-1.2-3.3-2.9-4.3-5c-1.1-2.1-1.6-4.4-1.6-7v-49.3c0-2.6,0.5-4.9,1.6-7 c1.1-2.1,2.5-3.8,4.3-5c1.8-1.2,3.8-1.9,6-1.9H512c2.2,0,4.2,0.6,6,1.9c1.8,1.3,3.3,2.9,4.3,5c1.1,2.1,1.6,4.4,1.6,7v49.3 c0,2.6-0.5,4.9-1.6,7c-1.1,2.1-2.5,3.8-4.3,5c-1.8,1.3-3.8,1.9-6,1.9H469.7z M470,258.6h41.8c0.6,0,1.1-0.3,1.6-0.8 s0.6-1.2,0.6-1.9v-48.6c0-0.7-0.2-1.3-0.6-1.9s-1-0.8-1.6-0.8H470c-0.6,0-1.2,0.3-1.6,0.8c-0.5,0.5-0.7,1.2-0.7,1.9v48.6 c0,0.7,0.2,1.3,0.7,1.9C468.8,258.3,469.3,258.6,470,258.6z"/><path d="M538.1,270.1V193h11.9l44.4,61.5V193h10v77.1h-11.9L548,208.5v61.6H538.1z"/><path d="M618.8,270.1V193h60.7v11.6h-50.7v21.2h40.8v11.6h-40.8v21.2h50.7v11.6H618.8z"/><path d="M693.1,270.1v-77h54.2c2.2,0,4.2,0.6,6.1,1.9c1.8,1.3,3.3,3,4.4,5.1c1.1,2.1,1.6,4.4,1.6,6.9v21.6c0,2.6-0.5,4.9-1.6,7 c-1.1,2.1-2.5,3.8-4.4,5c-1.8,1.3-3.9,1.9-6.1,1.9l-44.3,0.1v27.4H693.1z M705.3,230.9h41.8c0.6,0,1.1-0.2,1.6-0.8 c0.4-0.5,0.6-1.1,0.6-1.8v-21c0-0.7-0.2-1.3-0.6-1.9c-0.4-0.5-1-0.8-1.6-0.8h-41.8c-0.6,0-1.2,0.3-1.6,0.8s-0.7,1.2-0.7,1.9v21 c0,0.7,0.2,1.3,0.7,1.8C704.2,230.7,704.7,230.9,705.3,230.9z M747.4,270.1l-20.7-28.8h13L759,268v2.1H747.4z"/></g><g id="main-p"><path d="M67.3,271.8L54,271.9c-0.6,0-1-0.4-1-1l-0.1-13.3c0-0.6,0.4-1,1-1l13.3-0.1c0.6,0,1,0.4,1,1l0.1,13.3 C68.3,271.3,67.9,271.8,67.3,271.8z" class="st9"/><path d="M67.2,250.1l-13.3,0.1c-0.6,0-1-0.4-1-1L52.8,236c0-0.6,0.4-1,1-1l13.3-0.1c0.6,0,1,0.4,1,1l0.1,13.3 C68.1,249.7,67.7,250.1,67.2,250.1z" class="st9"/><path d="M67,228.5l-13.3,0.1c-0.6,0-1-0.4-1-1l-0.1-13.3c0-0.6,0.4-1,1-1l13.3-0.1c0.6,0,1,0.4,1,1l0.1,13.3 C68,228,67.5,228.5,67,228.5z" class="st9"/><path d="M66.8,206.9L53.5,207c-0.6,0-1-0.4-1-1l-0.1-13.3c0-0.6,0.4-1,1-1l13.3-0.1c0.6,0,1,0.4,1,1l0.1,13.3 C67.8,206.4,67.4,206.8,66.8,206.9z" class="st9"/><path d="M66.7,186.5l-13.3,0.1c-0.6,0-1-0.4-1-1l-0.1-13.3c0-0.6,0.4-1,1-1l13.3-0.1c0.6,0,1,0.4,1,1l0.1,13.3 C67.7,186,67.2,186.5,66.7,186.5z" class="st9"/><path d="M92.1,206.5l-13.3,0.1c-0.6,0-1-0.4-1-1l-0.1-13.3c0-0.6,0.4-1,1-1l13.3-0.1c0.6,0,1,0.4,1,1l0.1,13.3 C93.1,206,92.7,206.5,92.1,206.5z" class="st9"/><path d="M92.4,143.2l-13.3,0.1c-0.6,0-1-0.4-1-1L78.1,129c0-0.6,0.4-1,1-1l13.3-0.1c0.6,0,1,0.4,1,1l0.1,13.3 C93.4,142.7,93,143.2,92.4,143.2z" class="st9"/><path d="M66.7,164.8l-13.3,0.1c-0.6,0-1-0.4-1-1l-0.1-13.3c0-0.6,0.4-1,1-1l13.3-0.1c0.6,0,1,0.4,1,1l0.1,13.3 C67.7,164.4,67.3,164.8,66.7,164.8z" class="st9"/><path d="M117,206.5l-13.3,0.1c-0.6,0-1-0.4-1-1l-0.1-13.3c0-0.6,0.4-1,1-1l13.3-0.1c0.6,0,1,0.4,1,1l0.1,13.3 C118,206,117.5,206.5,117,206.5z" class="st9"/><path d="M117,143.2l-13.3,0.1c-0.6,0-1-0.4-1-1l-0.1-13.3c0-0.6,0.4-1,1-1l13.3-0.1c0.6,0,1,0.4,1,1l0.1,13.3 C118,142.7,117.5,143.2,117,143.2z" class="st9"/><path d="M140.9,206.9l-9.3,0.1c-1.2-1.2-1.8-1.8-3-3l-0.1-9.3c1.2-1.2,1.8-1.8,3-3l9.3-0.1c1.2,1.2,1.8,1.8,3,3 l0.1,9.3C142.7,205,142.1,205.7,140.9,206.9z" style="fill:#47b5ff;stroke:#47b5ff;stroke-miterlimit:10"/><path d="M141.2,143.2l-9.3,0.1c-1.2-1.2-1.8-1.8-3-3l-0.1-9.3c1.2-1.2,1.8-1.8,3-3l9.3-0.1c1.2,1.2,1.8,1.8,3,3 l0.1,9.3C143,141.4,142.4,142,141.2,143.2z" class="st10"/><path d="M64.5,143.2l-9.3,0.1c-1.2-1.2-1.8-1.8-3-3l-0.1-9.3c1.2-1.2,1.8-1.8,3-3l9.3-0.1c1.2,1.2,1.8,1.8,3,3 l0.1,9.3C66.3,141.4,65.7,142,64.5,143.2z" class="st10"/><path d="M143.2,164.9l-13.3,0.1c-0.6,0-1-0.4-1-1l-0.1-13.3c0-0.6,0.4-1,1-1l13.3-0.1c0.6,0,1,0.4,1,1l0.1,13.3 C144.2,164.4,143.7,164.9,143.2,164.9z" class="st9"/><path d="M143.1,186.5l-13.3,0.1c-0.6,0-1-0.4-1-1l-0.1-13.3c0-0.6,0.4-1,1-1l13.3-0.1c0.6,0,1,0.4,1,1l0.1,13.3 C144.1,186.1,143.7,186.5,143.1,186.5z" class="st9"/></g><g id="add-figs"><path d="M787.4,349.8l-13.3,0.1c-0.6,0-1-0.4-1-1l-0.1-13.3c0-0.6,0.4-1,1-1l13.3-0.1c0.6,0,1,0.4,1,1l0.1,13.3 C788.4,349.4,788,349.8,787.4,349.8z" class="st0"/><path d="M761.2,349.8l-13.3,0.1c-0.6,0-1-0.4-1-1l-0.1-13.3c0-0.6,0.4-1,1-1l13.3-0.1c0.6,0,1,0.4,1,1l0.1,13.3 C762.2,349.4,761.8,349.8,761.2,349.8z" class="st0"/><path d="M735,349.8l-13.3,0.1c-0.6,0-1-0.4-1-1l-0.1-13.3c0-0.6,0.4-1,1-1l13.3-0.1c0.6,0,1,0.4,1,1l0.1,13.3 C736,349.4,735.6,349.8,735,349.8z" class="st0"/><path d="M708.8,349.8l-13.3,0.1c-0.6,0-1-0.4-1-1l-0.1-13.3c0-0.6,0.4-1,1-1l13.3-0.1c0.6,0,1,0.4,1,1l0.1,13.3 C709.8,349.4,709.4,349.8,708.8,349.8z" class="st0"/><path d="M682.6,349.8l-13.3,0.1c-0.6,0-1-0.4-1-1l-0.1-13.3c0-0.6,0.4-1,1-1l13.3-0.1c0.6,0,1,0.4,1,1l0.1,13.3 C683.6,349.4,683.2,349.8,682.6,349.8z" class="st0"/><path d="M656.4,349.8l-13.3,0.1c-0.6,0-1-0.4-1-1l-0.1-13.3c0-0.6,0.4-1,1-1l13.3-0.1c0.6,0,1,0.4,1,1l0.1,13.3 C657.4,349.4,657,349.8,656.4,349.8z" class="st0"/><path d="M630.2,349.8l-13.3,0.1c-0.6,0-1-0.4-1-1l-0.1-13.3c0-0.6,0.4-1,1-1l13.3-0.1c0.6,0,1,0.4,1,1l0.1,13.3 C631.2,349.4,630.8,349.8,630.2,349.8z" class="st0"/><path d="M604,349.8l-13.3,0.1c-0.6,0-1-0.4-1-1l-0.1-13.3c0-0.6,0.4-1,1-1l13.3-0.1c0.6,0,1,0.4,1,1l0.1,13.3 C605,349.4,604.6,349.8,604,349.8z" class="st0"/><path d="M577.8,349.8l-13.3,0.1c-0.6,0-1-0.4-1-1l-0.1-13.3c0-0.6,0.4-1,1-1l13.3-0.1c0.6,0,1,0.4,1,1l0.1,13.3 C578.8,349.4,578.3,349.8,577.8,349.8z" class="st0"/><path d="M551.6,349.8l-13.3,0.1c-0.6,0-1-0.4-1-1l-0.1-13.3c0-0.6,0.4-1,1-1l13.3-0.1c0.6,0,1,0.4,1,1l0.1,13.3 C552.6,349.4,552.1,349.8,551.6,349.8z" class="st0"/><path d="M525.4,349.8l-13.3,0.1c-0.6,0-1-0.4-1-1l-0.1-13.3c0-0.6,0.4-1,1-1l13.3-0.1c0.6,0,1,0.4,1,1l0.1,13.3 C526.4,349.4,525.9,349.8,525.4,349.8z" class="st0"/><path d="M499.2,349.8l-13.3,0.1c-0.6,0-1-0.4-1-1l-0.1-13.3c0-0.6,0.4-1,1-1l13.3-0.1c0.6,0,1,0.4,1,1l0.1,13.3 C500.2,349.4,499.7,349.8,499.2,349.8z" class="st0"/><path d="M473,349.8l-13.3,0.1c-0.6,0-1-0.4-1-1l-0.1-13.3c0-0.6,0.4-1,1-1l13.3-0.1c0.6,0,1,0.4,1,1l0.1,13.3 C474,349.4,473.5,349.8,473,349.8z" class="st0"/><path d="M446.8,349.8l-13.3,0.1c-0.6,0-1-0.4-1-1l-0.1-13.3c0-0.6,0.4-1,1-1l13.3-0.1c0.6,0,1,0.4,1,1l0.1,13.3 C447.8,349.4,447.3,349.8,446.8,349.8z" class="st0"/><path d="M420.6,349.8l-13.3,0.1c-0.6,0-1-0.4-1-1l-0.1-13.3c0-0.6,0.4-1,1-1l13.3-0.1c0.6,0,1,0.4,1,1l0.1,13.3 C421.6,349.4,421.1,349.8,420.6,349.8z" class="st0"/><path d="M394.4,349.8l-13.3,0.1c-0.6,0-1-0.4-1-1l-0.1-13.3c0-0.6,0.4-1,1-1l13.3-0.1c0.6,0,1,0.4,1,1l0.1,13.3 C395.4,349.4,394.9,349.8,394.4,349.8z" class="st0"/><path d="M368.2,349.8l-13.3,0.1c-0.6,0-1-0.4-1-1l-0.1-13.3c0-0.6,0.4-1,1-1l13.3-0.1c0.6,0,1,0.4,1,1l0.1,13.3 C369.1,349.4,368.7,349.8,368.2,349.8z" class="st0"/><path d="M341.9,349.8l-13.3,0.1c-0.6,0-1-0.4-1-1l-0.1-13.3c0-0.6,0.4-1,1-1l13.3-0.1c0.6,0,1,0.4,1,1l0.1,13.3 C342.9,349.4,342.5,349.8,341.9,349.8z" class="st0"/><path d="M315.7,349.8l-13.3,0.1c-0.6,0-1-0.4-1-1l-0.1-13.3c0-0.6,0.4-1,1-1l13.3-0.1c0.6,0,1,0.4,1,1l0.1,13.3 C316.7,349.4,316.3,349.8,315.7,349.8z" class="st0"/><path d="M289.5,349.8l-13.3,0.1c-0.6,0-1-0.4-1-1l-0.1-13.3c0-0.6,0.4-1,1-1l13.3-0.1c0.6,0,1,0.4,1,1l0.1,13.3 C290.5,349.4,290.1,349.8,289.5,349.8z" class="st0"/><path d="M263.3,349.8l-13.3,0.1c-0.6,0-1-0.4-1-1l-0.1-13.3c0-0.6,0.4-1,1-1l13.3-0.1c0.6,0,1,0.4,1,1l0.1,13.3 C264.3,349.4,263.9,349.8,263.3,349.8z" class="st0"/><path d="M237.1,349.8l-13.3,0.1c-0.6,0-1-0.4-1-1l-0.1-13.3c0-0.6,0.4-1,1-1l13.3-0.1c0.6,0,1,0.4,1,1l0.1,13.3 C238.1,349.4,237.7,349.8,237.1,349.8z" class="st0"/><path d="M210.9,349.8l-13.3,0.1c-0.6,0-1-0.4-1-1l-0.1-13.3c0-0.6,0.4-1,1-1l13.3-0.1c0.6,0,1,0.4,1,1l0.1,13.3 C211.9,349.4,211.5,349.8,210.9,349.8z" class="st0"/><path d="M184.7,349.8l-13.3,0.1c-0.6,0-1-0.4-1-1l-0.1-13.3c0-0.6,0.4-1,1-1l13.3-0.1c0.6,0,1,0.4,1,1l0.1,13.3 C185.7,349.4,185.3,349.8,184.7,349.8z" class="st0"/><path d="M158.5,349.8l-13.3,0.1c-0.6,0-1-0.4-1-1l-0.1-13.3c0-0.6,0.4-1,1-1l13.3-0.1c0.6,0,1,0.4,1,1l0.1,13.3 C159.5,349.4,159.1,349.8,158.5,349.8z" class="st0"/><path d="M132.3,349.8l-13.3,0.1c-0.6,0-1-0.4-1-1l-0.1-13.3c0-0.6,0.4-1,1-1l13.3-0.1c0.6,0,1,0.4,1,1l0.1,13.3 C133.3,349.4,132.9,349.8,132.3,349.8z" class="st0"/><path d="M106.1,349.8l-13.3,0.1c-0.6,0-1-0.4-1-1l-0.1-13.3c0-0.6,0.4-1,1-1l13.3-0.1c0.6,0,1,0.4,1,1l0.1,13.3 C107.1,349.4,106.7,349.8,106.1,349.8z" class="st0"/><path d="M79.9,349.8l-13.3,0.1c-0.6,0-1-0.4-1-1l-0.1-13.3c0-0.6,0.4-1,1-1l13.3-0.1c0.6,0,1,0.4,1,1l0.1,13.3 C80.9,349.4,80.4,349.8,79.9,349.8z" class="st0"/><path d="M53.7,349.8l-13.3,0.1c-0.6,0-1-0.4-1-1l-0.1-13.3c0-0.6,0.4-1,1-1l13.3-0.1c0.6,0,1,0.4,1,1l0.1,13.3 C54.7,349.4,54.2,349.8,53.7,349.8z" class="st0"/><path d="M27.5,349.8l-13.3,0.1c-0.6,0-1-0.4-1-1l-0.1-13.3c0-0.6,0.4-1,1-1l13.3-0.1c0.6,0,1,0.4,1,1l0.1,13.3 C28.5,349.4,28,349.8,27.5,349.8z" class="st0"/></g></svg>